<svg width="111" height="159" viewBox="0 0 111 159" fill="none" xmlns="http://www.w3.org/2000/svg">
<path d="M78.9225 3.98197C80.2169 5.59426 80.8768 7.77025 82.1911 12.1169L111 107.139C100.18 101.498 88.5658 97.5502 76.5586 95.431L57.8041 31.7863C57.656 31.2775 57.3475 30.8307 56.925 30.5131C56.5024 30.1954 55.9886 30.024 55.4608 30.0246C54.9329 30.0252 54.4195 30.1978 53.9976 30.5164C53.5758 30.835 53.2683 31.2825 53.1214 31.7916L34.5917 95.3989C22.5325 97.5108 10.8666 101.465 0 107.124L28.9446 12.0968C30.2696 7.75555 30.9294 5.58357 32.2225 3.97128C33.3645 2.5511 34.8497 1.44831 36.5366 0.768075C38.4429 -2.38857e-07 40.7084 0 45.2301 0H65.9069C70.4326 0 72.6981 0 74.6111 0.773418C76.2981 1.45536 77.7816 2.56001 78.9225 3.98197Z" fill="url(#paint0_linear_2749_260)"/>
<path d="M82.0327 111.065C77.2865 115.14 67.8126 117.918 56.9016 117.918C43.5137 117.918 32.2863 113.733 29.3096 108.104C28.246 111.33 28.0067 115.02 28.0067 117.382C28.0067 117.382 27.3061 128.955 35.3295 137.006C35.3293 136.012 35.5242 135.028 35.9031 134.11C36.2821 133.192 36.8375 132.358 37.5378 131.655C38.2381 130.953 39.0695 130.396 39.9844 130.016C40.8994 129.636 41.88 129.44 42.8703 129.44C50.0096 129.44 50.0056 135.688 50.0003 140.764V141.212C50.0003 148.914 54.6893 155.513 61.358 158.296C60.3294 156.177 59.7964 153.851 59.7999 151.494C59.7999 144.146 64.0941 141.415 69.0903 138.236C73.0641 135.709 77.478 132.9 80.5158 127.267C82.1561 124.232 83.0131 120.834 83.0086 117.382C83.0094 115.238 82.6803 113.107 82.0327 111.065Z" fill="#FF5D01"/>
<path d="M82.0327 111.065C77.2865 115.14 67.8126 117.918 56.9016 117.918C43.5137 117.918 32.2863 113.733 29.3096 108.104C28.246 111.33 28.0067 115.02 28.0067 117.382C28.0067 117.382 27.3061 128.955 35.3295 137.006C35.3293 136.012 35.5242 135.028 35.9031 134.11C36.2821 133.192 36.8375 132.358 37.5378 131.655C38.2381 130.953 39.0695 130.396 39.9844 130.016C40.8994 129.636 41.88 129.44 42.8703 129.44C50.0096 129.44 50.0056 135.688 50.0003 140.764V141.212C50.0003 148.914 54.6893 155.513 61.358 158.296C60.3294 156.177 59.7964 153.851 59.7999 151.494C59.7999 144.146 64.0941 141.415 69.0903 138.236C73.0641 135.709 77.478 132.9 80.5158 127.267C82.1561 124.232 83.0131 120.834 83.0086 117.382C83.0094 115.238 82.6803 113.107 82.0327 111.065Z" fill="url(#paint1_linear_2749_260)"/>
<defs>
<linearGradient id="paint0_linear_2749_260" x1="87.9628" y1="-5.03951" x2="55.2508" y2="107.066" gradientUnits="userSpaceOnUse">
<stop stop-color="#000014"/>
<stop offset="1" stop-color="#150426"/>
</linearGradient>
<linearGradient id="paint1_linear_2749_260" x1="103.403" y1="77.9404" x2="75.1448" y2="136.893" gradientUnits="userSpaceOnUse">
<stop stop-color="#FF1639"/>
<stop offset="1" stop-color="#FF1639" stop-opacity="0"/>
</linearGradient>
</defs>
</svg>
