<svg width="168" height="180" viewBox="0 0 168 180" fill="none" xmlns="http://www.w3.org/2000/svg">
<path d="M83.7508 180L15.2626 162.088L0 0.824707H167.707L152.428 162.064L83.7508 180Z" fill="#264DE4"/>
<path d="M139.348 151.797L152.404 14.0103H83.8533V166.29L139.348 151.797Z" fill="#2965F1"/>
<path d="M34.9888 73.8207L36.8703 93.5991H83.8533V73.8207H34.9888ZM31.2075 33.7891L33.1159 53.5674H83.8533V33.7891H31.2075ZM83.8533 125.187L83.7612 125.21L60.3792 119.263L58.8843 103.489H37.8084L40.7495 134.544L83.7566 145.79L83.8533 145.765V125.187Z" fill="#EBEBEB"/>
<path d="M132.584 73.8207L136.373 33.7891H83.7809V53.5674H113.365L111.454 73.8207H83.7809V93.5991H109.634L107.197 119.25L83.7803 125.204V145.781L126.822 134.544L127.137 131.202L132.071 79.1318L132.584 73.8207Z" fill="white"/>
</svg>
