<svg width="188" height="188" viewBox="0 0 188 188" fill="none" xmlns="http://www.w3.org/2000/svg">
<path d="M143.938 0H44.0625C19.7275 0 0 19.7275 0 44.0625V143.938C0 168.273 19.7275 188 44.0625 188H143.938C168.273 188 188 168.273 188 143.938V44.0625C188 19.7275 168.273 0 143.938 0Z" fill="#F4F2ED"/>
<mask id="mask0_1955_26" style="mask-type:luminance" maskUnits="userSpaceOnUse" x="44" y="20" width="99" height="148">
<path d="M44.7969 20.5625H142.733V167.438H44.7969V20.5625Z" fill="white"/>
</mask>
<g mask="url(#mask0_1955_26)">
<path d="M69.2858 167.438C82.7983 167.438 93.7647 156.471 93.7647 142.959V118.479H69.2858C55.7733 118.479 44.8062 129.446 44.8062 142.959C44.8062 156.471 55.7733 167.438 69.2858 167.438Z" fill="#0ACF83"/>
<path d="M44.8062 93.9999C44.8062 80.4874 55.7733 69.521 69.2858 69.521H93.7647V118.479H69.2858C55.7733 118.479 44.8062 107.512 44.8062 93.9999Z" fill="#A259FF"/>
<path d="M44.8062 45.0414C44.8062 31.5289 55.7733 20.5625 69.2858 20.5625H93.7647V69.5211H69.2858C55.7733 69.5211 44.8062 58.5539 44.8062 45.0414Z" fill="#F24E1E"/>
<path d="M93.7649 20.5625H118.244C131.756 20.5625 142.723 31.5289 142.723 45.0414C142.723 58.5539 131.756 69.5211 118.244 69.5211H93.7649V20.5625Z" fill="#FF7262"/>
<path d="M142.723 93.9999C142.723 107.512 131.756 118.479 118.244 118.479C104.731 118.479 93.7649 107.512 93.7649 93.9999C93.7649 80.4874 104.731 69.521 118.244 69.521C131.756 69.521 142.723 80.4874 142.723 93.9999Z" fill="#1ABCFE"/>
</g>
</svg>
