<svg viewBox="0 0 159 180" fill="none" xmlns="http://www.w3.org/2000/svg">
<path d="M158.447 0L144.012 161.708L79.1267 179.696L14.4199 161.733L0 0H158.447Z" fill="#E44D26"/>
<path d="M79.2236 165.947L131.655 151.411L143.989 13.2241H79.2236V165.947Z" fill="#F16529"/>
<path d="M51.1627 52.8964H79.2237V33.0605H29.4846L29.9591 38.3821L34.8347 93.0445H79.2237V73.2087H52.9756L51.1627 52.8964ZM55.6333 102.963H35.721L38.4998 134.108L79.1324 145.387L79.2237 145.362V124.725L79.1367 124.748L57.0457 118.783L55.6333 102.963Z" fill="#EBEBEB"/>
<path d="M79.1552 93.0445H103.581L101.278 118.77L79.1545 124.741V145.378L119.819 134.108L120.118 130.757L124.779 78.5352L125.263 73.2087H79.1552V93.0445ZM79.1552 52.848V52.8964H127.068L127.466 48.4382L128.37 38.3821L128.844 33.0605H79.1552V52.848Z" fill="white"/>
</svg>
