<svg width="2950" height="265" viewBox="0 0 2950 265" fill="none" xmlns="http://www.w3.org/2000/svg">
<path d="M179.965 18.417H0L2.04506 41.9498H173.83L199.393 68.5521H217.799L232.114 38.8803H265.858C265.176 63.7774 269.334 101.089 270.971 104.363C272.607 107.637 279.151 105.727 282.218 104.363L349.705 68.5521L354.818 265H368.111L475.477 104.363H606.36L623.743 86.9691L661.577 160.637L698.388 109.479L1015.37 113.571L1070.59 72.6448L1117.63 167.799L1133.99 152.452L1152.39 47.0656L1183.07 90.0386L1427.45 86.9691L1653.43 152.452L1750.57 86.9691L2151.4 91.0618L2205.6 112.548L2256.72 72.6448L2373.29 170.869L2433.62 76.7375L2695.39 103.34L2752.65 76.7375H2950V41.9498H2744.47L2688.23 72.6448L2422.37 45.0193L2370.23 135.058L2265.93 41.9498L2205.6 94.1313L2155.49 72.6448L1744.44 70.5985L1701.49 99.2471L1653.43 130.965L1427.45 72.6448L1186.14 70.5985L1146.26 0L1117.63 144.266L1068.54 43.9961L1015.37 97.2008L688.163 90.0386L661.577 124.826L629.879 39.9035L601.248 86.9691L467.296 90.0386L372.201 222.027V25.5792L282.218 87.9923V3.0695L222.912 18.417L204.506 45.0193L179.965 18.417Z" fill="#FFFEFE"/>
</svg>
