<svg width="133" height="133" viewBox="0 0 133 133" fill="none" xmlns="http://www.w3.org/2000/svg">
<path d="M123.296 65.2995L65.2995 123.296C64.3 124.401 63.7633 125.848 63.8007 127.337C63.838 128.827 64.4463 130.245 65.4999 131.299C66.5536 132.352 67.9718 132.961 69.4614 132.998C70.9509 133.035 72.3979 132.499 73.5029 131.499L131.499 73.5029C132.499 72.3979 133.035 70.9509 132.998 69.4614C132.961 67.9718 132.352 66.5536 131.299 65.4999C130.245 64.4463 128.827 63.838 127.337 63.8007C125.848 63.7633 124.401 64.3 123.296 65.2995ZM111.697 1.50067L1.50067 111.697C0.501121 112.802 -0.0354869 114.249 0.00182294 115.738C0.0391328 117.228 0.647506 118.646 1.70112 119.7C2.75473 120.753 4.17298 121.362 5.66255 121.399C7.15212 121.436 8.59905 120.9 9.70409 119.9L119.9 9.70409C120.9 8.59905 121.436 7.15212 121.399 5.66255C121.362 4.17298 120.753 2.75473 119.7 1.70112C118.646 0.647506 117.228 0.0391328 115.738 0.00182294C114.249 -0.0354869 112.802 0.501121 111.697 1.50067Z" fill="black"/>
</svg>
