<svg width="431" height="190" viewBox="0 0 431 190" fill="none" xmlns="http://www.w3.org/2000/svg">
<path fill-rule="evenodd" clip-rule="evenodd" d="M431 32.9592L215.5 0L0 32.9592L50.7059 40.7143L0 48.4694L50.7059 56.2245L0 63.9796L50.7059 71.7347L0 79.4898L50.7059 87.2449L0 95L50.7059 102.755L0 110.51L50.7059 118.265L0 126.02L50.7059 133.776L0 141.531L50.7059 149.286L0 157.041L215.5 190L431 157.041L380.294 149.286L431 141.531L380.294 133.776L431 126.02L380.294 118.265L431 110.51L380.294 102.755L431 95L380.294 87.2449L431 79.4898L380.294 71.7347L431 63.9796L380.294 56.2245L431 48.4694L380.294 40.7143L431 32.9592ZM380.294 39.3992L422.402 32.9592L215.5 1.31504L8.59825 32.9592L50.7059 39.3992L215.5 14.1952L380.294 39.3992ZM50.7059 42.0293L8.59825 48.4694L50.7059 54.9095L92.8135 48.4694L50.7059 42.0293ZM101.412 47.1544L59.3041 40.7143L215.5 16.8252L371.696 40.7143L329.588 47.1544L215.5 29.7054L101.412 47.1544ZM101.412 49.7844L59.3041 56.2245L101.412 62.6646L143.519 56.2245L101.412 49.7844ZM152.118 54.9095L110.01 48.4694L215.5 32.3355L320.99 48.4694L278.882 54.9095L215.5 45.2156L152.118 54.9095ZM152.118 57.5395L110.01 63.9796L152.118 70.4197L194.225 63.9796L152.118 57.5395ZM202.824 62.6646L160.716 56.2245L215.5 47.8457L270.284 56.2245L228.176 62.6646L215.5 60.7258L202.824 62.6646ZM202.824 65.2946L160.716 71.7347L202.824 78.1748L215.5 76.236L228.176 78.1748L270.284 71.7347L228.176 65.2946L215.5 67.2334L202.824 65.2946ZM219.578 63.9796L215.5 63.3559L211.422 63.9796L215.5 64.6033L219.578 63.9796ZM236.775 63.9796L278.882 70.4197L320.99 63.9796L278.882 57.5395L236.775 63.9796ZM287.481 56.2245L329.588 62.6646L371.696 56.2245L329.588 49.7844L287.481 56.2245ZM338.186 48.4694L380.294 42.0293L422.402 48.4694L380.294 54.9095L338.186 48.4694ZM380.294 57.5395L338.186 63.9796L380.294 70.4197L422.402 63.9796L380.294 57.5395ZM371.696 71.7347L329.588 65.2946L287.481 71.7347L329.588 78.1748L371.696 71.7347ZM320.99 79.4898L278.882 73.0497L236.775 79.4898L278.882 85.9299L320.99 79.4898ZM287.481 87.2449L329.588 80.8048L371.696 87.2449L329.588 93.685L287.481 87.2449ZM270.284 87.2449L228.176 80.8048L215.5 82.7436L202.824 80.8048L160.716 87.2449L202.824 93.685L215.5 91.7462L228.176 93.685L270.284 87.2449ZM236.775 95L278.882 88.5599L320.99 95L278.882 101.44L236.775 95ZM219.578 95L215.5 94.3763L211.422 95L215.5 95.6237L219.578 95ZM202.824 96.315L215.5 98.2538L228.176 96.315L270.284 102.755L228.176 109.195L215.5 107.256L202.824 109.195L160.716 102.755L202.824 96.315ZM194.225 95L152.118 88.5599L110.01 95L152.118 101.44L194.225 95ZM143.519 102.755L101.412 96.315L59.3041 102.755L101.412 109.195L143.519 102.755ZM92.8135 110.51L50.7059 104.07L8.59825 110.51L50.7059 116.95L92.8135 110.51ZM59.3041 118.265L101.412 111.825L143.519 118.265L101.412 124.705L59.3041 118.265ZM50.7059 119.58L8.59825 126.02L50.7059 132.46L92.8135 126.02L50.7059 119.58ZM101.412 127.335L59.3041 133.776L101.412 140.216L143.519 133.776L101.412 127.335ZM152.118 135.091L110.01 141.531L215.5 157.665L320.99 141.531L278.882 135.091L215.5 144.784L152.118 135.091ZM287.481 133.776L329.588 140.216L371.696 133.776L329.588 127.335L287.481 133.776ZM320.99 126.02L278.882 132.46L236.775 126.02L278.882 119.58L320.99 126.02ZM338.186 126.02L380.294 132.46L422.402 126.02L380.294 119.58L338.186 126.02ZM371.696 118.265L329.588 124.705L287.481 118.265L329.588 111.825L371.696 118.265ZM380.294 116.95L422.402 110.51L380.294 104.07L338.186 110.51L380.294 116.95ZM329.588 109.195L371.696 102.755L329.588 96.315L287.481 102.755L329.588 109.195ZM278.882 104.07L236.775 110.51L278.882 116.95L320.99 110.51L278.882 104.07ZM270.284 118.265L228.176 111.825L215.5 113.764L202.824 111.825L160.716 118.265L202.824 124.705L215.5 122.767L228.176 124.705L270.284 118.265ZM219.578 126.02L215.5 125.397L211.422 126.02L215.5 126.644L219.578 126.02ZM202.824 127.335L160.716 133.776L215.5 142.154L270.284 133.776L228.176 127.335L215.5 129.274L202.824 127.335ZM194.225 126.02L152.118 132.46L110.01 126.02L152.118 119.58L194.225 126.02ZM152.118 116.95L110.01 110.51L152.118 104.07L194.225 110.51L152.118 116.95ZM211.422 110.51L215.5 111.134L219.578 110.51L215.5 109.886L211.422 110.51ZM338.186 95L380.294 101.44L422.402 95L380.294 88.5599L338.186 95ZM380.294 135.091L338.186 141.531L380.294 147.971L422.402 141.531L380.294 135.091ZM371.696 149.286L329.588 142.846L215.5 160.295L101.412 142.846L59.3041 149.286L215.5 173.175L371.696 149.286ZM50.7059 150.601L8.59825 157.041L215.5 188.685L422.402 157.041L380.294 150.601L215.5 175.805L50.7059 150.601ZM50.7059 147.971L92.8135 141.531L50.7059 135.091L8.59825 141.531L50.7059 147.971ZM50.7059 101.44L92.8135 95L50.7059 88.5599L8.59825 95L50.7059 101.44ZM59.3041 87.2449L101.412 93.685L143.519 87.2449L101.412 80.8048L59.3041 87.2449ZM110.01 79.4898L152.118 85.9299L194.225 79.4898L152.118 73.0497L110.01 79.4898ZM143.519 71.7347L101.412 78.1748L59.3041 71.7347L101.412 65.2946L143.519 71.7347ZM92.8135 63.9796L50.7059 57.5395L8.59825 63.9796L50.7059 70.4197L92.8135 63.9796ZM50.7059 73.0497L92.8135 79.4898L50.7059 85.9299L8.59825 79.4898L50.7059 73.0497ZM211.422 79.4898L215.5 80.1135L219.578 79.4898L215.5 78.8661L211.422 79.4898ZM380.294 85.9299L338.186 79.4898L380.294 73.0497L422.402 79.4898L380.294 85.9299Z" fill="url(#paint0_linear_2162_204)"/>
<defs>
<linearGradient id="paint0_linear_2162_204" x1="215.5" y1="0" x2="215.5" y2="300.51" gradientUnits="userSpaceOnUse">
<stop stop-color="white" stop-opacity="0"/>
<stop offset="1" stop-color="#D2D2D2"/>
</linearGradient>
</defs>
</svg>
