<svg width="224" height="134" viewBox="0 0 224 134" fill="none" xmlns="http://www.w3.org/2000/svg">
<path d="M112 0C82.1327 0 63.4725 14.8839 56 44.6638C67.1965 29.7782 80.2672 24.1963 95.1965 27.9181C103.721 30.0364 109.813 36.1993 116.559 43.0288C127.538 54.1385 140.247 67 168 67C197.865 67 216.528 52.1144 224 22.3275C212.8 37.2207 199.734 42.8055 184.802 39.0819C176.279 36.9618 170.195 30.8007 163.44 23.9712C152.467 12.8615 139.762 0 112 0ZM56 67C26.1345 67 7.4725 81.8856 0 111.672C11.1988 96.7793 24.2643 91.1945 39.1965 94.9181C47.7208 97.0382 53.8125 103.199 60.5587 110.029C71.5382 121.138 84.2467 134 112 134C141.865 134 160.528 119.116 168 89.3362C156.8 104.222 143.734 109.804 128.802 106.082C120.279 103.964 114.194 97.8007 107.439 90.9712C96.467 79.8615 83.762 67 56 67Z" fill="#38BDF8"/>
</svg>
