<svg width="181" height="182" viewBox="0 0 181 182" fill="none" xmlns="http://www.w3.org/2000/svg">
<path d="M160.855 0H20.1447C9.06511 0 0 9.06511 0 20.1447V161.157C0 172.237 9.06511 181.302 20.1447 181.302H160.855C171.935 181.302 181 172.237 181 161.157V20.1447C181 14.802 178.878 9.6781 175.1 5.90024C171.322 2.12238 166.198 0 160.855 0ZM144.84 140.811C144.538 140.912 144.135 141.013 143.833 141.013H121.07C120.084 141.03 119.116 140.751 118.29 140.212C117.464 139.673 116.818 138.9 116.436 137.991L91.6583 80.1758C91.4569 79.5715 90.8525 79.2693 90.3489 79.4708C90.188 79.5314 90.0419 79.6256 89.9203 79.7472C89.7987 79.8688 89.7045 80.0149 89.6438 80.1758L74.2332 116.94C73.931 117.645 74.2332 118.35 74.9382 118.652C75.1397 118.753 75.2404 118.753 75.4418 118.753H92.3634C93.3706 118.753 94.3779 119.357 94.7807 120.364L102.234 136.883C102.939 138.394 102.134 140.207 100.623 140.912C100.018 140.912 99.6155 141.013 99.2126 141.013H37.5698C36.059 141.013 34.7496 139.703 34.7496 138.193C34.7496 137.79 34.8503 137.487 34.951 137.085L74.2332 43.6132C75.039 41.5988 77.0534 40.2894 79.1686 40.2894H101.831C104.047 40.2894 105.961 41.5988 106.767 43.6132L146.25 137.085C146.955 138.495 146.351 140.207 144.84 140.811Z" fill="#ECECEC"/>
</svg>
