<svg width="225" height="182" viewBox="0 0 225 182" fill="none" xmlns="http://www.w3.org/2000/svg">
<path d="M87.8958 100.816C88.7106 86.2832 95.8268 73.4801 106.564 64.4036C117.092 55.4889 131.263 50.04 146.726 50.04C162.173 50.04 176.345 55.4889 186.881 64.4036C197.609 73.4792 204.726 86.2832 205.549 100.801C206.363 115.733 200.361 129.605 189.832 139.887C179.096 150.347 163.825 156.91 146.726 156.91C129.626 156.91 114.326 150.347 103.597 139.887C93.0603 129.604 87.0732 115.732 87.8958 100.816Z" fill="white"/>
<path d="M116.547 102.113C116.965 94.6569 120.617 88.0868 126.125 83.43C131.528 78.8563 138.799 76.0601 146.733 76.0601C154.659 76.0601 161.931 78.8563 167.337 83.43C172.842 88.0868 176.493 94.6569 176.915 102.106C177.333 109.768 174.254 116.886 168.851 122.161C163.342 127.528 155.507 130.896 146.733 130.896C137.96 130.896 130.108 127.528 124.603 122.161C119.197 116.886 116.125 109.768 116.547 102.113Z" fill="#265787"/>
<path d="M68.624 117.432C68.6765 120.355 69.6086 126.039 71.008 130.476C73.9477 139.869 78.9345 148.56 85.8739 156.218C92.9953 164.09 101.764 170.413 111.893 174.902C122.539 179.617 134.074 182.019 146.055 182C158.017 181.983 169.553 179.534 180.199 174.783C190.327 170.251 199.088 163.9 206.198 156.024C213.133 148.334 218.112 139.629 221.06 130.235C222.542 125.489 223.478 120.672 223.854 115.839C224.221 111.07 224.066 106.276 223.392 101.542C222.072 92.255 218.858 83.5416 213.911 75.5984C209.386 68.2994 203.554 61.9097 196.618 56.5308L196.634 56.5194L126.645 2.77872C126.581 2.73146 126.53 2.6807 126.462 2.63694C121.871 -0.888299 114.148 -0.876047 109.099 2.6562C103.993 6.2287 103.408 12.1371 107.952 15.8627L107.933 15.8829L137.125 39.6214L48.1508 39.7159H48.0318C40.6776 39.7246 33.6087 44.5495 32.2084 50.6469C30.7705 56.859 35.7661 62.0121 43.4126 62.0401L43.4003 62.0672L88.4986 61.9797L8.0236 123.751C7.9212 123.826 7.81005 123.905 7.71553 123.98C0.124181 129.793 -2.32984 139.46 2.4513 145.576C7.30419 151.797 17.6226 151.809 25.2927 145.612L69.213 109.668C69.213 109.668 68.5724 114.52 68.624 117.432ZM181.483 133.681C172.434 142.901 159.764 148.128 146.056 148.156C132.327 148.18 119.658 142.999 110.608 133.796C106.186 129.31 102.938 124.149 100.934 118.652C98.9633 113.243 98.2053 107.466 98.7137 101.731C99.1916 96.076 100.875 90.6823 103.562 85.8014C106.202 81.0045 109.837 76.6688 114.327 73.0018C123.123 65.834 134.322 61.9526 146.035 61.9368C157.761 61.9211 168.952 65.7666 177.757 72.9116C182.238 76.562 185.87 80.8819 188.509 85.6718C191.231 90.5787 192.89 96.0033 193.378 101.593C193.879 107.325 193.118 113.096 191.149 118.502C189.141 124.015 185.905 129.176 181.483 133.681Z" fill="#EA7600"/>
</svg>
