<svg viewBox="0 0 196 181" fill="none" xmlns="http://www.w3.org/2000/svg">
<path d="M0 0H196V180.188H0V0Z" fill="#F7DF1E"/>
<path d="M51.5359 150.577L66.5345 142.232C69.4286 146.949 72.0608 150.94 78.3749 150.94C84.4272 150.94 88.2438 148.764 88.2438 140.298V82.7234H106.662V140.537C106.662 158.075 95.4797 166.058 79.1643 166.058C64.4298 166.058 55.877 159.043 51.5352 150.576M116.667 148.763L131.664 140.78C135.612 146.708 140.743 151.062 149.821 151.062C157.453 151.062 162.32 147.554 162.32 142.715C162.32 136.91 157.32 134.853 148.9 131.468L144.296 129.652C131.007 124.452 122.192 117.92 122.192 104.132C122.192 91.4315 132.717 81.7549 149.164 81.7549C160.873 81.7549 169.294 85.505 175.345 95.302L161.003 103.769C157.845 98.5686 154.426 96.5127 149.163 96.5127C143.768 96.5127 140.348 99.6575 140.348 103.769C140.348 108.849 143.768 110.907 151.662 114.051L156.267 115.865C171.924 122.035 180.738 128.323 180.738 142.474C180.738 157.715 167.713 166.06 150.215 166.06C133.112 166.06 122.061 158.561 116.667 148.763Z" fill="black"/>
</svg>
